<?xml version="1.0" encoding="iso-8859-1"?>
<!-- Generator: Adobe Illustrator 19.2.0, SVG Export Plug-In . SVG Version: 6.00 Build 0)  -->
<svg xmlns="http://www.w3.org/2000/svg" xmlns:xlink="http://www.w3.org/1999/xlink" version="1.1" id="Layer_1" x="0px" y="0px" viewBox="0 0 40 40" style="enable-background:new 0 0 40 40;" xml:space="preserve">
<g>
	<g>
		<path style="fill:#98CCFD;" d="M4.749,35.632l3.125-6.125l-6.211-4.636C2.597,23.499,6.9,18.5,20,18.5    c13.161,0,17.418,4.995,18.34,6.369l-6.214,4.638l3.125,6.125L20,38.491L4.749,35.632z"/>
	</g>
	<g>
		<path style="fill:#4788C7;" d="M20,19c11.846,0,16.326,4.125,17.64,5.767l-5.476,4.086l-0.676,0.505l0.383,0.751l2.63,5.154    L20,37.983L5.498,35.264l2.63-5.154l0.383-0.751l-0.676-0.505l-5.475-4.086C3.68,23.119,8.163,19,20,19 M20,18C4.325,18,1,25,1,25    l6.237,4.655L4,36l16,3l16-3l-3.237-6.345L39,25C39,25,35.675,18,20,18L20,18z"/>
	</g>
</g>
<path style="fill:#4788C7;" d="M20,38c0,0-8-3.119-8-8c0-1.233,0-9.326,0-9.326h16c0,0,0,8.129,0,9.326C28,34.931,20,38,20,38z"/>
<g>
	<g>
		<path style="fill:#B6DCFE;" d="M28.4,23.9c-1.71,0-3.101-1.391-3.101-3.1c0-1.709,1.391-3.1,3.101-3.1c2.572,0,3.1,0.759,3.1,1.9    C31.5,21.478,29.997,23.9,28.4,23.9z M11.6,23.9c-1.597,0-3.1-2.422-3.1-4.3c0-1.141,0.527-1.9,3.1-1.9    c1.71,0,3.101,1.391,3.101,3.1C14.7,22.509,13.31,23.9,11.6,23.9z"/>
	</g>
	<g>
		<path style="fill:#4788C7;" d="M28.4,18.2c2.6,0,2.6,0.776,2.6,1.4c0,1.589-1.31,3.8-2.6,3.8c-1.434,0-2.6-1.166-2.6-2.6    S26.966,18.2,28.4,18.2 M11.6,18.2c1.434,0,2.6,1.166,2.6,2.6s-1.166,2.6-2.6,2.6c-1.29,0-2.6-2.211-2.6-3.8    C9,18.976,9,18.2,11.6,18.2 M28.4,17.2c-1.988,0-3.6,1.612-3.6,3.6s1.612,3.6,3.6,3.6s3.6-2.812,3.6-4.8S30.388,17.2,28.4,17.2    L28.4,17.2z M11.6,17.2c-1.988,0-3.6,0.412-3.6,2.4s1.612,4.8,3.6,4.8s3.6-1.612,3.6-3.6S13.588,17.2,11.6,17.2L11.6,17.2z"/>
	</g>
</g>
<g>
	<g>
		<path style="fill:#FFFFFF;" d="M20,34.5c-1.045,0-2.031-0.477-2.705-1.309l-0.094-0.115l-0.141-0.046    C13.137,31.754,10.5,28.125,10.5,24v-6.017c0-2.352,1.913-4.266,4.266-4.266h10.469c2.353,0,4.266,1.914,4.266,4.266V24    c0,4.125-2.637,7.754-6.561,9.031l-0.141,0.046l-0.094,0.115C22.031,34.023,21.045,34.5,20,34.5z"/>
	</g>
	<g>
		<path style="fill:#4788C7;" d="M25.234,14.217c2.077,0,3.766,1.689,3.766,3.766V24c0,3.908-2.498,7.346-6.215,8.555l-0.281,0.091    l-0.186,0.23C21.738,33.59,20.894,34,20,34s-1.738-0.41-2.318-1.124l-0.186-0.23l-0.281-0.091C13.498,31.346,11,27.908,11,24    v-6.017c0-2.076,1.689-3.766,3.766-3.766H25.234 M25.234,13.217H14.766c-2.632,0-4.766,2.134-4.766,4.766V24    c0,4.442,2.899,8.203,6.906,9.506C17.639,34.41,18.745,35,20,35s2.361-0.59,3.094-1.494C27.101,32.203,30,28.442,30,24v-6.017    C30,15.351,27.866,13.217,25.234,13.217L25.234,13.217z"/>
	</g>
</g>
<path style="fill:none;stroke:#4788C7;stroke-miterlimit:10;" d="M17.286,21.583c0,0,1.1-0.905,2.714-0.905s2.714,0.905,2.714,0.905  "/>
<g>
	<path style="fill:#4788C7;" d="M28.25,19h-6c-0.552,0-1,0.448-1,1v2c0,1.657,1.343,3,3,3h1c1.657,0,3-1.343,3-3V19z"/>
</g>
<g>
	<path style="fill:#4788C7;" d="M17.75,19h-6v3c0,1.657,1.343,3,3,3h1c1.657,0,3-1.343,3-3v-2C18.75,19.448,18.302,19,17.75,19z"/>
</g>
<g>
	<path style="fill:#98CCFD;" d="M20,20.504C8.931,20.504,1.495,17.658,1.495,15S8.931,9.496,20,9.496S38.505,12.342,38.505,15   S31.069,20.504,20,20.504z"/>
	<path style="fill:#4788C7;" d="M20,9.991c11.158,0,18.009,2.917,18.009,5.009c0,2.092-6.851,5.009-18.009,5.009   S1.991,17.092,1.991,15C1.991,12.908,8.842,9.991,20,9.991 M20,9C9.507,9,1,11.686,1,15c0,3.314,8.507,6,19,6s19-2.686,19-6   C39,11.686,30.493,9,20,9L20,9z"/>
</g>
<g>
	<path style="fill:#98CCFD;" d="M20,16.501c-2.583,0-10.413,0-10.5-3.064c1.003-4.493,2.68-11.938,5.825-11.938   c0.875,0,1.502,0.228,2.167,0.47c0.717,0.261,1.458,0.53,2.508,0.53c1.066,0,1.844-0.276,2.595-0.543   c0.663-0.235,1.289-0.457,2.08-0.457c2.782,0,4.159,5.407,5.49,10.637l0.335,1.308C30.41,16.501,23.387,16.501,20,16.501z"/>
	<path style="fill:#4788C7;" d="M24.675,1.998c2.395,0,3.783,5.452,5.007,10.262c0.105,0.413,0.21,0.825,0.316,1.235   c-0.201,2.508-7.301,2.508-9.998,2.508c-8.052,0-9.907-1.35-9.999-2.524c0.913-4.083,2.593-11.481,5.324-11.481   c0.787,0,1.347,0.204,1.997,0.44c0.722,0.263,1.54,0.56,2.678,0.56c1.152,0,2.007-0.304,2.762-0.571   C23.41,2.196,23.97,1.998,24.675,1.998 M24.675,1C22.888,1,21.925,2,20,2s-2.75-1-4.675-1C11.888,1,10.237,7.846,9,13.385   C9,16.769,15.899,17,20,17s11-0.077,11-3.615C29.487,7.538,28.112,1,24.675,1L24.675,1z"/>
</g>
</svg>
